<svg width="15" height="15" viewBox="0 0 15 15" fill="none" xmlns="http://www.w3.org/2000/svg">
<path d="M2.01066 5.12029C1.94146 5.18931 1.88656 5.27131 1.8491 5.36158C1.81164 5.45186 1.79236 5.54864 1.79236 5.64637C1.79236 5.74411 1.81164 5.84089 1.8491 5.93116C1.88656 6.02144 1.94146 6.10343 2.01066 6.17246L6.95049 11.1123C7.00549 11.1674 7.07081 11.2111 7.14272 11.2409C7.21463 11.2708 7.29172 11.2861 7.36957 11.2861C7.44743 11.2861 7.52452 11.2708 7.59643 11.2409C7.66834 11.2111 7.73366 11.1674 7.78866 11.1123L12.7285 6.17246C13.0198 5.88118 13.0198 5.41157 12.7285 5.12029C12.4372 4.82901 11.9676 4.82901 11.6763 5.12029L7.3666 9.42407L3.05688 5.11435C2.77155 4.82901 2.29599 4.82901 2.01066 5.12029Z" fill="white"/>
</svg>
