<svg width="17" height="16" viewBox="0 0 17 16" fill="none" xmlns="http://www.w3.org/2000/svg">
<path d="M5.10612 4.71501C5.1508 4.67023 5.20386 4.6347 5.26229 4.61045C5.32071 4.58621 5.38334 4.57373 5.4466 4.57373C5.50985 4.57373 5.57249 4.58621 5.63091 4.61045C5.68934 4.6347 5.7424 4.67023 5.78707 4.71501L8.33198 7.26088L10.8769 4.71501C10.9216 4.6703 10.9747 4.63483 11.0331 4.61063C11.0915 4.58644 11.1541 4.57398 11.2174 4.57398C11.2806 4.57398 11.3432 4.58644 11.4016 4.61063C11.46 4.63483 11.5131 4.6703 11.5578 4.71501C11.6025 4.75972 11.638 4.8128 11.6622 4.87122C11.6864 4.92964 11.6989 4.99225 11.6989 5.05549C11.6989 5.11872 11.6864 5.18133 11.6622 5.23975C11.638 5.29817 11.6025 5.35125 11.5578 5.39596L9.01196 7.94086L11.5578 10.4858C11.6025 10.5305 11.638 10.5836 11.6622 10.642C11.6864 10.7004 11.6989 10.763 11.6989 10.8262C11.6989 10.8895 11.6864 10.9521 11.6622 11.0105C11.638 11.0689 11.6025 11.122 11.5578 11.1667C11.5131 11.2114 11.46 11.2469 11.4016 11.2711C11.3432 11.2953 11.2806 11.3077 11.2174 11.3077C11.1541 11.3077 11.0915 11.2953 11.0331 11.2711C10.9747 11.2469 10.9216 11.2114 10.8769 11.1667L8.33198 8.62085L5.78707 11.1667C5.74236 11.2114 5.68928 11.2469 5.63086 11.2711C5.57244 11.2953 5.50983 11.3077 5.4466 11.3077C5.38337 11.3077 5.32075 11.2953 5.26234 11.2711C5.20392 11.2469 5.15084 11.2114 5.10612 11.1667C5.06141 11.122 5.02595 11.0689 5.00175 11.0105C4.97755 10.9521 4.9651 10.8895 4.9651 10.8262C4.9651 10.763 4.97755 10.7004 5.00175 10.642C5.02595 10.5836 5.06141 10.5305 5.10612 10.4858L7.65199 7.94086L5.10612 5.39596C5.06134 5.35129 5.02581 5.29822 5.00157 5.2398C4.97732 5.18137 4.96484 5.11874 4.96484 5.05549C4.96484 4.99223 4.97732 4.9296 5.00157 4.87117C5.02581 4.81275 5.06134 4.75968 5.10612 4.71501Z" fill="#736E6E"/>
</svg>
