<svg width="18" height="18" viewBox="0 0 18 18" fill="none" xmlns="http://www.w3.org/2000/svg">
<path d="M9.03955 1.50342C4.94893 1.50342 1.60205 4.85029 1.60205 8.94092C1.60205 13.0315 4.94893 16.3784 9.03955 16.3784C13.1302 16.3784 16.4771 13.0315 16.4771 8.94092C16.4771 4.85029 13.1302 1.50342 9.03955 1.50342ZM8.45518 4.69092H9.62393V10.5347H8.45518V4.69092ZM9.03955 13.7222C8.61455 13.7222 8.24268 13.3503 8.24268 12.9253C8.24268 12.5003 8.61455 12.1284 9.03955 12.1284C9.46455 12.1284 9.83643 12.5003 9.83643 12.9253C9.83643 13.3503 9.46455 13.7222 9.03955 13.7222Z" fill="#FF3D00"/>
</svg>
